<?xml version="1.0" encoding="UTF-8"?>
<svg id="Layer_1" data-name="Layer 1" xmlns="http://www.w3.org/2000/svg" viewBox="0 0 1000 1000">
  <defs>
    <style>
      .cls-1 {
        fill: #ff705c;
      }

      .cls-2 {
        fill: #1a1a1c;
      }

      .cls-3 {
        fill: #ffee52;
      }
    </style>
  </defs>
  <rect class="cls-1" x="-413.51" y="-109.53" width="1824.19" height="1224.97"/>
  <g>
    <path class="cls-3" d="M945.28,823.42L527.56,101.92c-5-8.62-13.92-13.78-23.89-13.78s-18.91,5.16-23.91,13.78L62.05,823.42c-5.01,8.65-5.01,18.98-.02,27.63,1.78,3.08,4.06,5.68,6.7,7.79,5.17,5.22,12.04,8.38,19.53,8.78,72.58,3.82,141.82,4.44,213,4.44,17.28,0,34.67-.04,52.25-.07,13.5-.02,27.09-.06,40.81-.07,190.02-.17,367.08-2.2,526.27-6.03,4.67-.11,9.22-1.54,13.27-4,4.69-2.37,8.69-6.04,11.45-10.83,4.99-8.66,4.97-18.98-.02-27.63Z"/>
    <path class="cls-2" d="M890.8,553.48c-.55-20.57-4.55-39.02-12.22-56.39-33.73-76.4-104.04-114.53-188.02-101.98-12.95,1.93-25.82,5.03-38.3,9.23-5.29-5.19-12.51-7.64-22.42-7.65h-48.94c-7.65.02-14.34,4.82-17.02,12.2-14.09,38.77-70.48,193.49-88.86,242.27-3.16,8.4-15.8,35.45-45.87,30.28-6.03-1.02-11.49-4.75-14.96-10.26-3.22-5.11-4.18-11.08-2.65-16.38l.84-2.95c1.96-6.83,4.17-14.59,6.77-21.45l77.92-205.67c2.09-5.52,1.34-11.73-2.04-16.65-3.32-4.77-8.82-7.65-14.73-7.73-24.59-.35-50.04-.17-57.76-.07-14.73.19-25.47,7.77-30.25,21.34-11.72,33.34-23.59,65.88-35.29,96.72-6.46,17.04-12.52,34.95-17.88,50.76l-.18.55c-7.06,20.89-14.36,42.49-22.78,63.23-5.18,12.79-12.09,27.23-24.05,37.21-15.63,13.04-39.09,18.69-59.81,14.42-28.95-5.97-29.39-37.1-28.83-46.49.94-15.8,6.1-31.01,12.26-47.84,13.17-36.14,40.26-108.75,61.07-163,2.15-5.54,1.41-11.78-1.96-16.66-3.68-5.39-7.95-7.65-14.73-7.82-6.89-.17-47.55-.22-53.32-.01-8.29.29-14.49,2.09-20.1,5.81-11.87,7.88-27.12,22.46-44.88,39.43-23.93,22.87-53.72,51.33-82.61,70.04-5.01,3.25-8.09,8.77-8.22,14.77-.12,5.99,2.76,11.65,7.73,15.14,5.02,3.5,9.83,3,15.1,2.01.6-.07,1.16-.18,1.71-.33,7.87-1.62,24.99-5.93,58.15-14.41-10.48,26.92-20.66,55.67-26.05,86.69-7.41,42.5,3.1,82.25,30.41,114.94,43.92,52.58,116.14,54.72,164.66,34.46,17.62-7.37,30.93-19.04,40.16-28.47,22.75,26.47,58.29,37.12,87.23,36.42-1.96,5.28-4.05,10.93-6.24,16.84l-3.45,9.33c-13.68,37.03-32.42,87.73-42.38,113.23-3.92,10.04-2.92,20.53,2.76,28.77,5.61,8.12,15.13,12.78,26.16,12.78,0,0,47.47-.36,47.72-.36,7.7,0,14.36-4.68,16.98-11.93,6.32-17.64,15.18-42.21,24.53-68.19l17.91-49.72c12.61-35.02,23.83-66.17,28.54-79.37l8.69-24.31c3.67,3.84,7.51,7.47,11.48,10.82,40.81,34.4,88.35,47.41,141.32,38.68,44.91-7.44,83.49-26,114.68-55.16,49.55-46.29,73.77-102.53,72-167.13h.02ZM783.24,569.6c-5.59,41.59-25.03,73.18-57.76,93.87-17.02,10.76-35.28,16.22-54.22,16.22h-.38c-29.23-.09-53.94-18.34-62.95-46.5-1.51-4.72-2.66-9.9-3.51-15.81-.23-1.67-.34-3.39-.49-5.79l-.23-2.48c1.69-29.49,12.03-55.78,30.72-78.14,19.88-23.78,45.83-36.91,77.11-38.98,1.65-.11,3.26-.16,4.75-.16,25.68,0,47.25,14.01,59.19,38.43,6.79,13.87,9.4,27.09,7.77,39.33h0Z"/>
  </g>
</svg>